<svg width="561" height="266" viewBox="0 0 561 266" fill="currentColor" xmlns="http://www.w3.org/2000/svg">
<path d="M533.916 203.164C550.185 203.164 560.364 211.603 560.364 225.262C560.364 238.834 550.185 247.273 533.916 247.273H521.649V264.064H507.555V203.164H533.916ZM533.133 235.789C541.746 235.789 546.096 231.874 546.096 225.262C546.096 218.563 541.746 214.648 533.133 214.648H521.649V235.789H533.133Z" fill="#currentColor"/>
<path d="M466.048 265.108C448.735 265.108 438.469 255.19 438.469 237.268V203.164H452.563V236.746C452.563 248.317 457.609 253.102 466.135 253.102C474.748 253.102 479.707 248.317 479.707 236.746V203.164H493.627V237.268C493.627 255.19 483.361 265.108 466.048 265.108Z" fill="#currentColor"/>
<path d="M395.079 265.108C375.852 265.108 361.758 251.71 361.758 233.614C361.758 215.518 375.852 202.12 395.079 202.12C414.219 202.12 428.4 215.431 428.4 233.614C428.4 251.797 414.219 265.108 395.079 265.108ZM395.079 253.102C405.954 253.102 414.132 245.185 414.132 233.614C414.132 222.043 405.954 214.126 395.079 214.126C384.204 214.126 376.026 222.043 376.026 233.614C376.026 245.185 384.204 253.102 395.079 253.102Z" fill="#currentColor"/>
<path d="M355.549 264.064H340.411L328.666 247.099H327.97H315.703V264.064H301.609V203.164H327.97C344.239 203.164 354.418 211.603 354.418 225.262C354.418 234.397 349.807 241.096 341.89 244.489L355.549 264.064ZM340.15 225.262C340.15 218.563 335.8 214.648 327.187 214.648H315.703V235.876H327.187C335.8 235.876 340.15 231.874 340.15 225.262Z" fill="#currentColor"/>
<path d="M275.643 250.492V232.657H288.519V257.365C281.82 262.411 272.598 265.108 263.898 265.108C244.758 265.108 230.664 251.971 230.664 233.614C230.664 215.257 244.758 202.12 264.159 202.12C274.86 202.12 283.734 205.774 289.65 212.647L280.602 220.999C276.165 216.301 271.032 214.126 264.855 214.126C253.023 214.126 244.932 222.043 244.932 233.614C244.932 245.011 253.023 253.102 264.681 253.102C268.509 253.102 272.076 252.406 275.643 250.492Z" fill="#currentColor"/>
<path d="M197.891 245.011V234.136H222.512V245.011H197.891Z" fill="#currentColor"/>
<path d="M156.337 265.108C137.11 265.108 123.016 251.71 123.016 233.614C123.016 215.518 137.11 202.12 156.337 202.12C175.477 202.12 189.658 215.431 189.658 233.614C189.658 251.797 175.477 265.108 156.337 265.108ZM156.337 253.102C167.212 253.102 175.39 245.185 175.39 233.614C175.39 222.043 167.212 214.126 156.337 214.126C145.462 214.126 137.284 222.043 137.284 233.614C137.284 245.185 145.462 253.102 156.337 253.102Z" fill="#currentColor"/>
<path d="M116.807 264.064H101.669L89.9242 247.099H89.2282H76.9612V264.064H62.8672V203.164H89.2282C105.497 203.164 115.676 211.603 115.676 225.262C115.676 234.397 111.065 241.096 103.148 244.489L116.807 264.064ZM101.408 225.262C101.408 218.563 97.0582 214.648 88.4452 214.648H76.9612V235.876H88.4452C97.0582 235.876 101.408 231.874 101.408 225.262Z" fill="#currentColor"/>
<path d="M26.361 203.164C42.63 203.164 52.809 211.603 52.809 225.262C52.809 238.834 42.63 247.273 26.361 247.273H14.094V264.064H0V203.164H26.361ZM25.578 235.789C34.191 235.789 38.541 231.874 38.541 225.262C38.541 218.563 34.191 214.648 25.578 214.648H14.094V235.789H25.578Z" fill="#currentColor"/>
<path d="M408.287 81.9932H408.284V120.472H408.287V139.577H332.661V139.279C305.158 138.506 281.643 121.789 271.031 98.0439C276.987 95.1546 282.396 91.3139 287.06 86.7188C294.05 106.211 312.674 120.164 334.562 120.203V120.204H382.577C382.483 120.294 382.387 120.383 382.292 120.472H389.179V81.9932H339.03L352.165 62.8877H408.287V81.9932ZM246.139 0.0146484C246.517 0.0049665 246.897 4.4363e-06 247.278 0C271.459 0 291.062 19.6024 291.062 43.7832C291.061 67.9633 271.459 87.5664 247.278 87.5664C246.897 87.5664 246.517 87.5595 246.139 87.5498V87.5664H172.106V139.31H153.001V87.5664H153V68.4609H211.11L211.109 68.46H247.279V68.459L247.28 68.46C260.909 68.4598 271.957 57.4108 271.958 43.7822C271.958 30.1533 260.909 19.1047 247.28 19.1045H246.139V19.1055H153V0H246.139V0.0146484ZM408.287 19.1055H334.422L334.002 19.1084C322.467 19.2546 311.865 23.2657 303.427 29.9043C301.894 23.3989 299.308 17.2995 295.857 11.7979C306.431 4.69357 319.058 0.41099 332.661 0.0283203V0H408.287V19.1055Z" fill="#currentColor"/>
</svg>
