<svg width="256" height="140" viewBox="0 0 256 140" fill="none" xmlns="http://www.w3.org/2000/svg">
<path d="M255.287 81.9932H255.284V120.472H255.287V139.577H179.661V139.279C152.158 138.506 128.643 121.789 118.031 98.0439C123.987 95.1546 129.396 91.3139 134.06 86.7188C141.05 106.211 159.674 120.164 181.562 120.203V120.204H229.577C229.483 120.294 229.387 120.383 229.292 120.472H236.179V81.9932H186.03L199.165 62.8877H255.287V81.9932ZM93.1387 0.0146484C93.5174 0.0049665 93.8973 4.4363e-06 94.2783 0C118.459 0 138.062 19.6024 138.062 43.7832C138.061 67.9633 118.459 87.5664 94.2783 87.5664C93.8973 87.5664 93.5174 87.5595 93.1387 87.5498V87.5664H19.1064V139.31H0.000976562V87.5664H0V68.4609H58.1104L58.1094 68.46H94.2793V68.459L94.2803 68.46C107.909 68.4598 118.957 57.4108 118.958 43.7822C118.958 30.1533 107.909 19.1047 94.2803 19.1045H93.1387V19.1055H0V0H93.1387V0.0146484ZM255.287 19.1055H181.422L181.002 19.1084C169.467 19.2546 158.865 23.2657 150.427 29.9043C148.894 23.3989 146.308 17.2995 142.857 11.7979C153.431 4.69357 166.058 0.41099 179.661 0.0283203V0H255.287V19.1055Z" fill="white"/>
</svg>
